<?xml version="1.0" standalone="no"?>
<!DOCTYPE svg PUBLIC "-//W3C//DTD SVG 20010904//EN"
 "http://www.w3.org/TR/2001/REC-SVG-20010904/DTD/svg10.dtd">
<svg version="1.0" xmlns="http://www.w3.org/2000/svg"
 width="512.000000pt" height="512.000000pt" viewBox="0 0 512.000000 512.000000"
 preserveAspectRatio="xMidYMid meet">
<metadata>
Created by potrace 1.14, written by Peter Selinger 2001-2017
</metadata>
<g transform="translate(0.000000,512.000000) scale(0.100000,-0.100000)"
fill="#000000" stroke="none">
<path d="M2458 5115 c-2 -2 -19 -5 -38 -8 -277 -43 -529 -246 -634 -511 -98
-246 -73 -534 66 -755 15 -25 26 -46 25 -47 -2 -2 -124 -4 -273 -4 -258 -1
-271 -2 -314 -24 -48 -24 -64 -43 -430 -517 -91 -118 -170 -221 -177 -229 -7
-8 -47 -60 -89 -115 l-76 -100 4 -160 c5 -185 21 -241 92 -328 45 -55 123
-114 165 -124 14 -3 31 -10 38 -15 8 -7 11 -221 11 -853 l-1 -844 -34 -12
c-18 -6 -46 -27 -61 -47 -27 -35 -27 -37 -27 -181 1 -125 4 -151 20 -178 40
-67 -88 -63 1841 -63 1921 0 1778 -5 1825 62 22 30 23 42 23 178 0 133 -2 149
-21 176 -20 28 -45 45 -86 58 -16 5 -17 51 -15 852 3 741 5 848 18 854 119 55
185 108 229 185 46 79 53 113 57 281 l4 160 -96 125 c-52 68 -106 137 -119
154 -13 16 -126 163 -251 325 -124 162 -235 305 -247 317 -11 12 -39 31 -63
42 -41 20 -62 21 -314 21 -148 0 -270 2 -270 4 0 3 16 31 35 63 37 62 80 162
90 209 46 207 31 394 -44 558 -108 239 -313 408 -571 473 -55 13 -282 28 -292
18z"/>
</g>
</svg>
